<?xml version="1.0" standalone="no"?><!DOCTYPE svg PUBLIC "-//W3C//DTD SVG 1.1//EN" "http://www.w3.org/Graphics/SVG/1.1/DTD/svg11.dtd"><svg t="1779274180737" class="icon" viewBox="0 0 1024 1024" version="1.1" xmlns="http://www.w3.org/2000/svg" p-id="14864" xmlns:xlink="http://www.w3.org/1999/xlink" width="64" height="64"><path d="M822.992593 224.44563h-92.994371V166.153481a93.259852 93.259852 0 0 0-93.146074-93.146074h-225.924741A93.259852 93.259852 0 0 0 317.819259 166.153481v58.292149H201.007407c-79.606519 0-144.080593 64.474074-144.080592 143.739259v55.751111c0 42.097778 34.512593 76.61037 76.61037 76.61037h4.171852v233.244445a151.36237 151.36237 0 0 0 146.24237 151.172741v28.103111a37.925926 37.925926 0 1 0 75.851852 0v-27.572148h300.22163v27.572148a37.925926 37.925926 0 1 0 75.851852 0v-28.103111a151.36237 151.36237 0 0 0 146.318222-151.172741v-233.244445h8.343704c42.097778 0 76.61037-34.512593 76.61037-76.61037v-55.751111c0-79.265185-64.474074-143.739259-144.118518-143.739259zM393.671111 166.153481c0-9.519407 7.698963-17.294222 17.256296-17.294222h225.924741c9.519407 0 17.294222 7.774815 17.294222 17.294222v58.292149h-260.513185V166.153481z m268.136296 337.806223c0 60.681481-49.682963 110.364444-110.364444 110.364444h-83.057778c-60.681481 0-109.985185-49.682963-109.985185-110.364444v-83.057778c0-60.681481 49.303704-109.985185 109.985185-109.985185h83.057778c60.681481 0 110.364444 49.303704 110.364444 109.985185v83.057778z" p-id="14865" fill="#d81e06"></path><path d="M551.442963 386.692741h-82.981926c-18.962963 0-34.398815 15.397926-34.398815 34.360889v82.981926c0 18.962963 15.397926 34.360889 34.398815 34.360888h82.944c18.962963 0 34.360889-15.397926 34.360889-34.360888v-82.981926c0-18.962963-15.36-34.360889-34.360889-34.360889z" p-id="14866" fill="#d81e06"></path></svg>